<svg xmlns="http://www.w3.org/2000/svg" width="600" height="189" viewBox="-0.333 0.317 600 189" overflow="visible"><path fill-rule="evenodd" clip-rule="evenodd" fill="#E25027" d="M476.042 105.035h-39.866c-.029 1.497-.279 3.507 0 5.199.098.597.181 1.854.433 2.6.073.217.666 1.447.867 1.734 1.186 1.683 6.129 3.238 9.535 3.466 8.127.551 19.906-2.069 24.698-3.466 1.814 4.974 2.684 10.893 3.466 16.898-10.651 3.246-22.934 5.591-34.666 4.334-1.521-.163-2.315-.038-4.333-.433-.225-.045-3.496-.816-5.634-1.733-1.768-.76-5.379-2.721-7.365-4.333-.923-.747-1.904-1.424-2.601-2.167-.371-.397-1.935-2.245-2.167-2.602-.552-.838-1.488-3.082-2.167-4.765-.369-.916-.607-1.736-.866-2.6-2.797-9.297-3.104-33.853.866-42.466.516-1.121 1.268-3.842 2.167-5.201.313-.471 1.608-1.302 2.167-2.166 2.132-3.295 7.521-6.007 12.134-7.364.847-.253 2.936-.964 4.766-1.302 2.924-.54 9.005-.536 10.835-.432 1.785.101 3.625.207 5.199.432.637.09 3.393.463 4.771.964 2.01.73 5.936 2.597 6.494 2.937 1.96 1.188 4.202 3.164 5.201 4.331.674.791 1.527 2.35 2.167 3.468 4.545 7.974 4.152 20.577 3.899 34.667zM455.24 82.502c-.092-1.153-.622-2.573-.864-3.034-.856-1.627-2.422-2.495-2.6-2.6-1.827-1.057-6.661-1.354-9.102-.868-5.467 1.096-7.251 6.491-6.499 12.136h19.064c.076-1.651.153-3.753.001-5.634zM544.372 134.5h-8.668c-2.957 0-7.574.081-8.297-.253-2.041-.943-1.791-2.402-2.534-4.514-7.136 3.836-19.027 8.984-29.031 5.201-.861-.325-3.793-1.747-5.202-3.034-3.448-3.145-5.979-9.331-6.502-15.167-.871-9.791 1.849-17.532 7.802-21.232 1.55-.963 5.079-2.65 8.231-3.034 7.259-.882 12.745.633 22.1 0 .146-1.487.076-3.61 0-5.632-.092-2.396.044-4.311-.431-5.633-.574-1.588-2.213-3.12-3.902-3.899-1.436-.663-5.7-.866-8.234-.866-7.261 0-16.185 1.491-20.797 2.166-.595-5.762-2.066-10.646-2.602-16.467 6.451-2.675 15.934-2.952 23.834-3.899 2.175-.264 4.657-.126 7.368 0 4.895.226 8.938.853 12.998 2.165 3.375 1.093 4.776 1.892 6.933 3.468.994.727 2.104 1.88 2.498 2.341.687.799 2.035 2.833 2.701 4.591 1.404 3.711 1.963 9.859 2.169 14.735.629 14.961-.133 35.048-.434 48.963zm-37.702-25.565c-1.725 1.667-1.698 6.921 0 8.667 1.193 1.226 2.673 1.314 2.603 1.3 4.335.928 11.487-1.586 13.432-3.468-1.003-1.74-.149-5.339-.434-7.799-5.108.586-12.98-1.227-15.601 1.3zM599.699 79.035c-6.827 3.141-13.984 5.95-19.933 9.968v45.498h-22.099V59.537c4.985-.008 13.527-.045 17.735.271.893 0 .726 1.114 1.331 3.195.328 1.129.506 2.429.866 3.468.128.47.506.243.866 0 1.947-1.318 5.082-3.07 7.802-4.334 3.244-1.509 7.287-2.885 10.831-3.899.368-.081.407.168.434.432.7 3.308 1.703 13.053 2.167 20.365z"/><path fill-rule="evenodd" clip-rule="evenodd" fill="#669EB2" d="M31.631 72.256h29.902c2.767 8.488 5.208 17.033 7.798 25.565 1.928 6.347 4.202 12.673 6.067 19.065.646 2.213 1.081 4.373 1.732 6.501 5.208 17.021 10.791 33.908 15.601 51.131H68.898c-1.962-6.562-3.593-13.449-5.633-19.932-.875.009-32.529.177-33.798.432-2.209 6.171-3.687 13.068-5.633 19.5H.001c7.449-25.375 15.061-50.612 22.966-75.832 2.641-8.427 4.838-16.878 7.8-25.131-.019-.741.322-1.122.864-1.299zM45.5 95.222c-3.343 12.943-7.267 26.76-10.833 39.863.746.051 21.876-.032 22.966 0-3.647-13.828-7.256-27.699-11.266-41.163-.411.163-.761.88-.867 1.3zM157.193 145.054h-39.864c-.138 2.367.005 4.263.432 6.065.235.987.413 1.146.868 2.168 1.14 2.562 4.025 3.679 4.766 3.899 3.53 1.051 7.021.829 11.7.432 4.646-.392 9.005-.851 13.001-1.731 2.021-.445 3.829-.789 5.2-.868 1.232 5.269 2.388 11.521 3.033 16.467-6.996 2.271-15.556 4.185-24.266 4.768-6.972.466-13.888-.329-19.531-2.362-1.024-.369-2.126-.702-3.002-1.105-1.391-.641-3.153-1.884-4.765-3.032-.154-.107-2.892-2.718-4.335-4.767-1.441-2.047-4.045-6.715-4.766-10.399-.837-4.283-.435-9.779-.435-15.165 0-5.508-.429-11.201 0-16.034.368-4.105 1.717-8.048 3.468-11.268 1.232-2.261 2.459-4.608 3.9-6.065.359-.362 2.241-1.918 2.6-2.169 2.991-2.064 7.451-3.579 11.701-4.765 4.885-1.365 13.355-1.036 19.066 0 1.902.345 3.535.706 5.2 1.3 1.47.524 3.032 1.137 4.164 1.766.752.418 1.957 1.172 2.088 1.253 5.763 3.55 9.187 12.246 9.778 19.948.492 6.376.16 13.918-.001 21.664zm-23.831-27.734c-3.902-2.528-12.18-1.219-14.3 1.3-.136.165-.758 1.145-.865 1.302-1.284 1.867-.933 6.779-.867 8.231h19.066c.272-5.388-.379-9.111-3.034-10.833zM210.824 118.62c-.156.98-.518.981-2.165 1.736-2.197 1.006-5.347 1.836-7.801 3.032-3.429 1.671-7.257 3.646-9.532 5.198v45.933c.02.039-22.53.039-22.614-.045 0-24.698.08-49.788.08-74.484 4.463-.055 14.163-.008 18.633 0a300.3 300.3 0 0 0 1.301 6.931c6.099-3.432 12.565-6.499 19.933-8.666 1.527 5.984 2.064 15.5 2.165 20.365z"/><path fill="#E25027" d="M425.329 71.677l-3.694-18.695c-.295-1.459-1.285-2.632-2.454-2.874l-10.864-2.22a65.334 65.334 0 0 1 5.566 16.575 65.454 65.454 0 0 1 1.001 17.104l9.269-6.292c.988-.669 1.46-2.131 1.176-3.598z"/><path fill-rule="evenodd" clip-rule="evenodd" fill="#E25027" d="M414.082 63.485c-7.382-35.73-42.332-58.713-78.065-51.329-35.731 7.382-58.712 42.334-51.329 78.065 6.469 31.314 34.113 52.83 64.897 52.705-21.852-3.588-40.278-20.23-45.025-43.209-6.156-29.795 13.004-58.939 42.799-65.095 29.794-6.157 58.935 13.005 65.091 42.8a55.05 55.05 0 0 1 .944 15.813 65.78 65.78 0 0 0 .688-29.75z"/><path fill="#E25027" d="M283.827 71.036l-11.024 7.287c-1.002.663-1.482 2.114-1.208 3.581l3.55 18.724c.278 1.469 1.268 2.649 2.438 2.908l12.96 2.807a65.552 65.552 0 0 1-6.716-35.307zM354.042 11.314l-6.766-10.045c-.67-.993-2.131-1.472-3.6-1.188l-18.704 3.632c-1.471.284-2.639 1.272-2.885 2.445l-2.509 12.084a65.9 65.9 0 0 1 17.32-5.934 65.797 65.797 0 0 1 17.144-.994zM306.648 26.874l-12.385-2.421c-1.174-.224-2.548.471-3.383 1.706l-10.66 15.794c-.837 1.244-.969 2.772-.311 3.768l6.968 10.63a66.007 66.007 0 0 1 19.771-29.477zM298.66 118.761l-2.571 12.803c-.233 1.174.457 2.54 1.7 3.382l15.779 10.679c1.241.838 2.77.965 3.773.316l10.625-6.887a66.024 66.024 0 0 1-29.306-20.293zM398.74 33.578l2.233-11.115c.236-1.164-.456-2.54-1.697-3.376L383.495 8.408c-1.236-.832-2.771-.963-3.773-.318l-9.839 6.379a65.924 65.924 0 0 1 28.857 19.109z"/><path fill="#EB8467" d="M392.035 90.96c.147-12.908-10.503-20.354-20.518-23.018-2.9-.771-5.838-1.104-8.729-.984-12.216.501-22.257 8.897-25.58 21.393-2.068 7.771-1.192 15.625 2.462 22.108 3.617 6.416 9.684 11.031 17.076 12.998 3.1.825 6.221 1.182 9.277 1.056 4.752-.194 11.267-1.666 16.847-7.222l-27.544-7.329a2.277 2.277 0 0 1-1.617-2.786l3.152-11.842a2.276 2.276 0 0 1 2.785-1.615l44.651 11.879a41.214 41.214 0 0 0 1.373-11.626l-11.501-.713a2.277 2.277 0 0 1-2.134-2.299z"/><path fill="#669EB2" d="M295.477 142.956l-6.966-4.742c-.008-.099-.009-.202-.019-.302a38.351 38.351 0 0 0-1.329-6.927c-.029-.095-.065-.19-.092-.285l4.748-7.145c.397-.592.328-1.508-.157-2.251l-6.19-9.482c-.485-.742-1.291-1.166-1.986-1.036l-8.389 1.586c-.077-.063-.147-.135-.224-.198a37.708 37.708 0 0 0-5.581-3.845c-.085-.046-.176-.085-.26-.132l-1.703-8.551c-.142-.699-.83-1.296-1.694-1.472L254.6 95.931c-.864-.177-1.729.101-2.129.688l-4.762 7.067c-.098.005-.197.008-.296.017a37.54 37.54 0 0 0-6.925 1.324c-.099.029-.196.068-.295.097l-7.065-4.72c-.589-.392-1.496-.321-2.233.172l-9.405 6.3c-.739.494-1.158 1.31-1.026 2.011l1.529 8.201c-.064.072-.136.144-.198.22a38.266 38.266 0 0 0-4.11 6.041c-.048.088-.087.179-.136.267l-8.369 1.658c-.695.136-1.291.83-1.472 1.701l-2.318 11.148c-.18.872.093 1.747.673 2.156l7.002 4.897c.008.101.009.199.019.299a38.144 38.144 0 0 0 1.339 7.099c.027.1.063.195.093.29l-4.721 7.101c-.394.593-.328 1.506.158 2.253l6.189 9.478c.484.743 1.291 1.168 1.987 1.038l8.31-1.568c.078.062.148.134.226.202a37.776 37.776 0 0 0 6.056 4.114c.087.05.181.088.266.133l1.604 8.302c.137.7.823 1.299 1.691 1.468l11.028 2.263c.867.178 1.732-.105 2.138-.692l4.841-7.092c.098-.012.204-.012.302-.021a37.025 37.025 0 0 0 4.701-.813c-2.249.236-4.555.235-6.896-.098-15.4-2.185-26.111-16.443-23.922-31.841 2.186-15.402 16.443-26.115 31.845-23.926 15.398 2.186 26.108 16.441 23.922 31.843a27.985 27.985 0 0 1-3.313 9.758c1.129-1.502 2.187-3.073 3.096-4.754.048-.09.087-.186.137-.276l8.311-1.746c.691-.149 1.285-.849 1.459-1.722l2.231-11.163c.177-.879-.099-1.748-.685-2.149z"/></svg>