<?xml version="1.0" encoding="utf-8"?>
<!-- Generator: Adobe Illustrator 18.1.1, SVG Export Plug-In . SVG Version: 6.00 Build 0)  -->
<svg version="1.1" id="Layer_1" xmlns="http://www.w3.org/2000/svg" xmlns:xlink="http://www.w3.org/1999/xlink" x="0px" y="0px"
	 viewBox="0 0 44.8 44.6" xml:space="preserve">
<g>
	<g>
		<path fill="#CB2027" d="M44.7,0c-1.8,0-16.6,0-22.3,0.1C10,0.1,0,9.9,0,22.3c0,6.1,0.1,22.3,0.1,22.3l25.5-0.1
			C36.5,43,44.8,33.7,44.8,22.4C44.7,16.9,44.8,0,44.7,0z"/>
		<g>
			<path fill="#FFFFFF" d="M34.9,8.3l0-0.4l-9,0l0,0.4c0,0,0,18.6,0,21.9c0,3.1-2.8,6.4-2.8,6.4l-0.6,0.7l0.9,0
				c0.8,0,1.7-0.2,2.5-0.5V37l0.6-0.3c0.1-0.1,0.2-0.1,0.3-0.2c0.7-0.3,1.3-0.7,1.9-1.2c4-2.9,6.2-7.3,6.2-12.2
				C34.9,19,34.9,8.3,34.9,8.3z"/>
			<path fill="#FFFFFF" d="M23,19.7l0.6-0.7l-0.9,0c-1.4,0.1-2.8,0.3-4.2,0.8c0-2.2,0-4.1,0-4.9c0-3.1,2.8-6.4,2.8-6.4l0.6-0.7
				l-0.9,0c-0.8,0-1.7,0.2-2.5,0.5V8.3l-0.6,0.3c-0.1,0-0.1,0.1-0.2,0.1l-0.1,0.1c-0.7,0.3-1.3,0.7-1.9,1.2c-4,2.9-6.2,7.3-6.2,12.2
				C9.4,26.2,9.4,37,9.4,37l0,0.4l9,0l0-8.2C19,24.5,22.9,19.8,23,19.7z"/>
		</g>
	</g>
</g>
</svg>
