<svg xmlns="http://www.w3.org/2000/svg" viewBox="0 0 306.1 44.6"><path fill="#CB2027" d="M44.7 0c-1.8 0-16.6 0-22.3.1C10 .1 0 9.9 0 22.3c0 6.1.1 22.3.1 22.3l25.5-.1C36.5 43 44.8 33.7 44.8 22.4c-.1-5.5 0-22.4-.1-22.4z"/><g fill="#FFF"><path d="M34.9 8.3v-.4h-9V30.2c0 3.1-2.8 6.4-2.8 6.4l-.6.7h.9c.8 0 1.7-.2 2.5-.5v.2l.6-.3c.1-.1.2-.1.3-.2.7-.3 1.3-.7 1.9-1.2 4-2.9 6.2-7.3 6.2-12.2V8.3zM23 19.7l.6-.7h-.9c-1.4.1-2.8.3-4.2.8v-4.9c0-3.1 2.8-6.4 2.8-6.4l.6-.7H21c-.8 0-1.7.2-2.5.5l-.6.3c-.1 0-.1.1-.2.1l-.1.1c-.7.3-1.3.7-1.9 1.2-4 2.9-6.2 7.3-6.2 12.2-.1 4-.1 14.8-.1 14.8v.4h9v-8.2c.6-4.7 4.5-9.4 4.6-9.5z"/></g><g fill="#FFF"><path d="M83.2 10.1H70.4c-.3 0-.6.1-.9.3-.3.3-.3.6-.3.9v22.9c0 .3.1.6.3.9.3.3.6.3.9.3.2 0 .3 0 .5-.1s.5-.2.6-.5c.1-.2.2-.5.2-.7v-10h9c.3 0 .6-.1.9-.3.3-.3.3-.6.3-.9 0-.2 0-.3-.1-.5s-.2-.5-.5-.6c-.2-.1-.5-.2-.7-.2h-9v-9h11.5c.3 0 .6-.1.9-.3.3-.3.3-.6.3-.9 0-.3-.1-.6-.3-.9-.2-.3-.5-.4-.8-.4zM107.5 12.6c.3 0 .6-.1.9-.3.3-.3.3-.6.3-.9 0-.3-.1-.6-.3-.9-.3-.3-.6-.3-.9-.3H94.8c-.3 0-.6.1-.9.3-.3.3-.3.6-.3.9v22.9c0 .3.1.6.3.9.3.3.6.3.9.3h12.7c.3 0 .6-.1.9-.3.3-.3.3-.6.3-.9 0-.3-.1-.6-.3-.9-.1-.1-.3-.2-.4-.3-.2-.1-.3-.1-.5-.1H96v-9h8.9c.3 0 .6-.1.9-.3.3-.3.3-.6.3-.9 0-.3-.1-.6-.3-.9-.1-.1-.3-.2-.4-.3-.2-.1-.3-.1-.5-.1H96v-9h11.5zM132.7 12.6c.3 0 .6-.1.9-.3.3-.3.3-.6.3-.9 0-.3-.1-.6-.3-.9-.3-.3-.6-.3-.9-.3H120c-.2 0-.3 0-.5.1s-.5.3-.6.5c-.1.2-.2.5-.2.7v22.9c0 .2 0 .3.1.5s.2.5.5.6c.2.1.5.2.7.2h12.7c.3 0 .6-.1.9-.3.3-.3.3-.6.3-.9 0-.3-.1-.6-.3-.9-.3-.3-.6-.3-.9-.3h-11.5v-9h9c.3 0 .6-.1.9-.3.3-.3.3-.6.3-.9 0-.3-.1-.6-.3-.9-.3-.3-.6-.3-.9-.3h-9v-9h11.5zM152.8 10.1h-7.6c-.3 0-.6.1-.9.3-.3.3-.3.6-.3.9v22.9c0 .3.1.6.3.9.3.3.6.3.9.3h7.6c3.5 0 6.5-1.3 9-3.7 2.5-2.5 3.7-5.5 3.7-9s-1.3-6.5-3.7-9c-2.4-2.3-5.5-3.6-9-3.6zm7.3 19.9c-2 2-4.4 3-7.2 3h-6.4V12.6h6.4c2.8 0 5.2 1 7.2 3s3 4.4 3 7.2-1 5.2-3 7.2zM192.1 10.1c-.3 0-.6.1-.9.3-.1.1-.2.3-.3.4-.1.2-.1.3-.1.5v10.2H178V11.3c0-.3-.1-.6-.3-.9-.3-.3-.6-.3-.9-.3-.3 0-.6.1-.9.3-.3.3-.3.6-.3.9v22.9c0 .3.1.6.3.9.3.3.6.3.9.3.3 0 .6-.1.9-.3.3-.3.3-.6.3-.9V24h12.8v10.2c0 .2 0 .3.1.5s.2.5.5.6c.2.1.5.2.7.2.3 0 .6-.1.9-.3.3-.3.3-.6.3-.9v-23c0-.3-.1-.6-.3-.9-.3-.2-.6-.3-.9-.3zM219 12.6c.3 0 .6-.1.9-.3.3-.3.3-.6.3-.9 0-.3-.1-.6-.3-.9-.1-.1-.3-.2-.4-.3-.2-.1-.3-.1-.5-.1h-12.7c-.3 0-.6.1-.9.3-.3.3-.3.6-.3.9v22.9c0 .2 0 .3.1.5s.2.5.5.6c.2.1.5.2.7.2H219c.3 0 .6-.1.9-.3.3-.3.3-.6.3-.9 0-.3-.1-.6-.3-.9-.1-.1-.3-.2-.4-.3-.2-.1-.3-.1-.5-.1h-11.5v-9h8.9c.3 0 .6-.1.9-.3.3-.3.3-.6.3-.9 0-.3-.1-.6-.3-.9-.3-.3-.6-.3-.9-.3h-8.9v-9H219zM249.3 10.1c-.3 0-.6.1-.9.3-.3.3-.3.6-.3.9v19.3l-15.6-20-.4-.4c-.2-.1-.4-.2-.6-.2-.3 0-.6.1-.9.3-.3.3-.3.6-.3.9v22.9c0 .3.1.6.3.9.3.3.6.3.9.3.3 0 .6-.1.9-.3.3-.3.3-.6.3-.9V15l15.5 20 .4.4c.2.1.4.2.6.2.3 0 .6-.1.9-.3.1-.1.2-.3.3-.4.1-.2.1-.3.1-.5V11.3c0-.3-.1-.6-.3-.9-.3-.2-.6-.3-.9-.3zM277.4 17.7c0-2.1-.8-3.9-2.2-5.4-1.5-1.5-3.3-2.2-5.4-2.2h-6.4c-.3 0-.6.1-.9.3-.1.1-.2.3-.3.4-.1.2-.1.3-.1.5v23c0 .3.1.6.3.9.3.3.6.3.9.3.3 0 .6-.1.9-.3.3-.3.3-.6.3-.9V12.6h5.1c1.4 0 2.6.5 3.6 1.5s1.5 2.2 1.5 3.6-.5 2.6-1.5 3.6-2.2 1.5-3.6 1.5h-3.7c-.3 0-.7.1-1 .3-.1.1-.3.3-.3.4-.1.2-.1.3-.1.5s.1.4.1.6c.1.2.2.3.3.4L275 35.1c.2.2.5.4.9.4.3 0 .6-.1.9-.3.3-.3.3-.6.3-.9 0-.3-.1-.6-.4-.9l-8.1-8.1h.8c2.1 0 3.9-.8 5.4-2.2 1.9-1.5 2.6-3.3 2.6-5.4zM305.8 12.1zM306 10.9c-.1-.2-.3-.5-.5-.6-.2-.1-.5-.2-.7-.2-.2 0-.4 0-.6.1-.2.1-.3.2-.4.4l-7.9 10.2-7.9-10.2c-.1-.1-.2-.3-.4-.4-.2-.1-.4-.1-.6-.1-.3 0-.6.1-.9.3-.3.3-.3.6-.3.9 0 .3.1.6.3.7l8.7 11.1v11c0 .3.1.6.3.9.3.3.6.3.9.3.3 0 .6-.1.9-.3.3-.3.3-.6.3-.9v-11l8.6-11.1c.2-.2.3-.5.3-.8 0 0-.1-.2-.1-.3z"/></g></svg>