<?xml version="1.0" encoding="utf-8"?>
<!-- Generator: Adobe Illustrator 18.1.1, SVG Export Plug-In . SVG Version: 6.00 Build 0)  -->
<svg version="1.1" id="Layer_1" xmlns="http://www.w3.org/2000/svg" xmlns:xlink="http://www.w3.org/1999/xlink" x="0px" y="0px"
	 viewBox="0 0 306.1 44.6" enable-background="new 0 0 306.1 44.6" xml:space="preserve">
<g>
	<g>
		<path fill="#CB2027" d="M44.7,0c-1.8,0-16.6,0-22.3,0.1C10,0.1,0,9.9,0,22.3c0,6.1,0.1,22.3,0.1,22.3l25.5-0.1
			C36.5,43,44.8,33.7,44.8,22.4C44.7,16.9,44.8,0,44.7,0z"/>
		<g>
			<path fill="#FFFFFF" d="M34.9,8.3l0-0.4l-9,0l0,0.4c0,0,0,18.6,0,21.9c0,3.1-2.8,6.4-2.8,6.4l-0.6,0.7l0.9,0
				c0.8,0,1.7-0.2,2.5-0.5V37l0.6-0.3c0.1-0.1,0.2-0.1,0.3-0.2c0.7-0.3,1.3-0.7,1.9-1.2c4-2.9,6.2-7.3,6.2-12.2
				C34.9,19,34.9,8.3,34.9,8.3z"/>
			<path fill="#FFFFFF" d="M23,19.7l0.6-0.7l-0.9,0c-1.4,0.1-2.8,0.3-4.2,0.8c0-2.2,0-4.1,0-4.9c0-3.1,2.8-6.4,2.8-6.4l0.6-0.7
				l-0.9,0c-0.8,0-1.7,0.2-2.5,0.5V8.3l-0.6,0.3c-0.1,0-0.1,0.1-0.2,0.1l-0.1,0.1c-0.7,0.3-1.3,0.7-1.9,1.2c-4,2.9-6.2,7.3-6.2,12.2
				C9.4,26.2,9.4,37,9.4,37l0,0.4l9,0l0-8.2C19,24.5,22.9,19.8,23,19.7z"/>
		</g>
	</g>
</g>
<g>
	<path fill="#FFFFFF" d="M83.2,10.1H70.4c-0.3,0-0.6,0.1-0.9,0.3c-0.3,0.3-0.3,0.6-0.3,0.9v22.9c0,0.3,0.1,0.6,0.3,0.9
		c0.3,0.3,0.6,0.3,0.9,0.3c0.2,0,0.3,0,0.5-0.1c0.2-0.1,0.5-0.2,0.6-0.5c0.1-0.2,0.2-0.5,0.2-0.7V24.1h9c0.3,0,0.6-0.1,0.9-0.3
		c0.3-0.3,0.3-0.6,0.3-0.9c0-0.2,0-0.3-0.1-0.5c-0.1-0.2-0.2-0.5-0.5-0.6c-0.2-0.1-0.5-0.2-0.7-0.2h-9v-9h11.5
		c0.3,0,0.6-0.1,0.9-0.3c0.3-0.3,0.3-0.6,0.3-0.9c0-0.3-0.1-0.6-0.3-0.9C83.8,10.2,83.5,10.1,83.2,10.1z"/>
	<path fill="#FFFFFF" d="M107.5,12.6c0.3,0,0.6-0.1,0.9-0.3c0.3-0.3,0.3-0.6,0.3-0.9c0-0.3-0.1-0.6-0.3-0.9
		c-0.3-0.3-0.6-0.3-0.9-0.3H94.8c-0.3,0-0.6,0.1-0.9,0.3c-0.3,0.3-0.3,0.6-0.3,0.9v22.9c0,0.3,0.1,0.6,0.3,0.9
		c0.3,0.3,0.6,0.3,0.9,0.3h12.7c0.3,0,0.6-0.1,0.9-0.3c0.3-0.3,0.3-0.6,0.3-0.9c0-0.3-0.1-0.6-0.3-0.9c-0.1-0.1-0.3-0.2-0.4-0.3
		c-0.2-0.1-0.3-0.1-0.5-0.1H96v-9h8.9c0.3,0,0.6-0.1,0.9-0.3c0.3-0.3,0.3-0.6,0.3-0.9c0-0.3-0.1-0.6-0.3-0.9
		c-0.1-0.1-0.3-0.2-0.4-0.3c-0.2-0.1-0.3-0.1-0.5-0.1H96v-9H107.5z"/>
	<path fill="#FFFFFF" d="M132.7,12.6c0.3,0,0.6-0.1,0.9-0.3c0.3-0.3,0.3-0.6,0.3-0.9c0-0.3-0.1-0.6-0.3-0.9
		c-0.3-0.3-0.6-0.3-0.9-0.3H120c-0.2,0-0.3,0-0.5,0.1c-0.2,0.1-0.5,0.3-0.6,0.5c-0.1,0.2-0.2,0.5-0.2,0.7v22.9c0,0.2,0,0.3,0.1,0.5
		c0.1,0.2,0.2,0.5,0.5,0.6c0.2,0.1,0.5,0.2,0.7,0.2h12.7c0.3,0,0.6-0.1,0.9-0.3c0.3-0.3,0.3-0.6,0.3-0.9c0-0.3-0.1-0.6-0.3-0.9
		c-0.3-0.3-0.6-0.3-0.9-0.3h-11.5v-9h9c0.3,0,0.6-0.1,0.9-0.3c0.3-0.3,0.3-0.6,0.3-0.9c0-0.3-0.1-0.6-0.3-0.9
		c-0.3-0.3-0.6-0.3-0.9-0.3h-9v-9H132.7z"/>
	<path fill="#FFFFFF" d="M152.8,10.1h-7.6c-0.3,0-0.6,0.1-0.9,0.3c-0.3,0.3-0.3,0.6-0.3,0.9v22.9c0,0.3,0.1,0.6,0.3,0.9
		c0.3,0.3,0.6,0.3,0.9,0.3h7.6c3.5,0,6.5-1.3,9-3.7c2.5-2.5,3.7-5.5,3.7-9c0-3.5-1.3-6.5-3.7-9C159.4,11.4,156.3,10.1,152.8,10.1z
		 M160.1,30c-2,2-4.4,3-7.2,3h-6.4V12.6h6.4c2.8,0,5.2,1,7.2,3c2,2,3,4.4,3,7.2C163.1,25.6,162.1,28,160.1,30L160.1,30z"/>
	<path fill="#FFFFFF" d="M192.1,10.1c-0.3,0-0.6,0.1-0.9,0.3c-0.1,0.1-0.2,0.3-0.3,0.4c-0.1,0.2-0.1,0.3-0.1,0.5v10.2H178V11.3
		c0-0.3-0.1-0.6-0.3-0.9c-0.3-0.3-0.6-0.3-0.9-0.3c-0.3,0-0.6,0.1-0.9,0.3c-0.3,0.3-0.3,0.6-0.3,0.9v22.9c0,0.3,0.1,0.6,0.3,0.9
		c0.3,0.3,0.6,0.3,0.9,0.3c0.3,0,0.6-0.1,0.9-0.3c0.3-0.3,0.3-0.6,0.3-0.9V24h12.8v10.2c0,0.2,0,0.3,0.1,0.5
		c0.1,0.2,0.2,0.5,0.5,0.6c0.2,0.1,0.5,0.2,0.7,0.2c0.3,0,0.6-0.1,0.9-0.3c0.3-0.3,0.3-0.6,0.3-0.9V11.3c0-0.3-0.1-0.6-0.3-0.9
		C192.7,10.2,192.4,10.1,192.1,10.1z"/>
	<path fill="#FFFFFF" d="M219,12.6c0.3,0,0.6-0.1,0.9-0.3c0.3-0.3,0.3-0.6,0.3-0.9c0-0.3-0.1-0.6-0.3-0.9c-0.1-0.1-0.3-0.2-0.4-0.3
		c-0.2-0.1-0.3-0.1-0.5-0.1h-12.7c-0.3,0-0.6,0.1-0.9,0.3c-0.3,0.3-0.3,0.6-0.3,0.9v22.9c0,0.2,0,0.3,0.1,0.5
		c0.1,0.2,0.2,0.5,0.5,0.6c0.2,0.1,0.5,0.2,0.7,0.2H219c0.3,0,0.6-0.1,0.9-0.3c0.3-0.3,0.3-0.6,0.3-0.9c0-0.3-0.1-0.6-0.3-0.9
		c-0.1-0.1-0.3-0.2-0.4-0.3c-0.2-0.1-0.3-0.1-0.5-0.1h-11.5v-9h8.9c0.3,0,0.6-0.1,0.9-0.3c0.3-0.3,0.3-0.6,0.3-0.9
		c0-0.3-0.1-0.6-0.3-0.9c-0.3-0.3-0.6-0.3-0.9-0.3h-8.9v-9H219z"/>
	<path fill="#FFFFFF" d="M249.3,10.1c-0.3,0-0.6,0.1-0.9,0.3c-0.3,0.3-0.3,0.6-0.3,0.9v19.3l-15.6-20l0,0c-0.1-0.1-0.3-0.3-0.4-0.4
		c-0.2-0.1-0.4-0.2-0.6-0.2c-0.3,0-0.6,0.1-0.9,0.3c-0.3,0.3-0.3,0.6-0.3,0.9v22.9c0,0.3,0.1,0.6,0.3,0.9c0.3,0.3,0.6,0.3,0.9,0.3
		c0.3,0,0.6-0.1,0.9-0.3c0.3-0.3,0.3-0.6,0.3-0.9V15l15.5,20l0,0c0.1,0.1,0.3,0.3,0.4,0.4c0.2,0.1,0.4,0.2,0.6,0.2
		c0.3,0,0.6-0.1,0.9-0.3c0.1-0.1,0.2-0.3,0.3-0.4c0.1-0.2,0.1-0.3,0.1-0.5V11.3c0-0.3-0.1-0.6-0.3-0.9
		C249.9,10.2,249.6,10.1,249.3,10.1z"/>
	<path fill="#FFFFFF" d="M277.4,17.7c0-2.1-0.8-3.9-2.2-5.4c-1.5-1.5-3.3-2.2-5.4-2.2h-6.4c-0.3,0-0.6,0.1-0.9,0.3
		c-0.1,0.1-0.2,0.3-0.3,0.4c-0.1,0.2-0.1,0.3-0.1,0.5v23c0,0.3,0.1,0.6,0.3,0.9c0.3,0.3,0.6,0.3,0.9,0.3c0.3,0,0.6-0.1,0.9-0.3
		c0.3-0.3,0.3-0.6,0.3-0.9V12.6h5.1c1.4,0,2.6,0.5,3.6,1.5c1,1,1.5,2.2,1.5,3.6c0,1.4-0.5,2.6-1.5,3.6c-1,1-2.2,1.5-3.6,1.5h-3.7
		c-0.3,0-0.7,0.1-1,0.3c-0.1,0.1-0.3,0.3-0.3,0.4c-0.1,0.2-0.1,0.3-0.1,0.5c0,0.2,0.1,0.4,0.1,0.6c0.1,0.2,0.2,0.3,0.3,0.4l0,0
		l10.1,10.1l0,0c0.2,0.2,0.5,0.4,0.9,0.4c0.3,0,0.6-0.1,0.9-0.3c0.3-0.3,0.3-0.6,0.3-0.9c0-0.3-0.1-0.6-0.4-0.9l0,0l-8.1-8.1h0.8
		c2.1,0,3.9-0.8,5.4-2.2l0,0C276.7,21.6,277.4,19.8,277.4,17.7z"/>
	<polygon fill="#FFFFFF" points="305.8,12.1 305.8,12.1 305.8,12.1 	"/>
	<path fill="#FFFFFF" d="M306,10.9c-0.1-0.2-0.3-0.5-0.5-0.6c-0.2-0.1-0.5-0.2-0.7-0.2c-0.2,0-0.4,0-0.6,0.1
		c-0.2,0.1-0.3,0.2-0.4,0.4v0l-7.9,10.2L288,10.6l0,0c-0.1-0.1-0.2-0.3-0.4-0.4c-0.2-0.1-0.4-0.1-0.6-0.1c-0.3,0-0.6,0.1-0.9,0.3
		c-0.3,0.3-0.3,0.6-0.3,0.9c0,0.3,0.1,0.6,0.3,0.7l0,0l8.7,11.1v11c0,0.3,0.1,0.6,0.3,0.9c0.3,0.3,0.6,0.3,0.9,0.3
		c0.3,0,0.6-0.1,0.9-0.3c0.3-0.3,0.3-0.6,0.3-0.9v-11l8.6-11.1c0.2-0.2,0.3-0.5,0.3-0.8C306.1,11.2,306,11,306,10.9z"/>
</g>
</svg>
