<svg xmlns="http://www.w3.org/2000/svg" width="1920" height="400"><path d="M438,564L226,559L668,580Z" fill="#6d7d93" stroke="#6d7d93" stroke-width="1.51"/><path d="M-191,-170L392,-166L801,-186Z" fill="#e2f4c0" stroke="#e2f4c0" stroke-width="1.51"/><path d="M1070,574L906,587L1445,578Z" fill="#275f93" stroke="#275f93" stroke-width="1.51"/><path d="M1316,-147L1415,-140L1595,-140Z" fill="#9db4bb" stroke="#9db4bb" stroke-width="1.51"/><path d="M1595,-140L1667,-113L1834,-109Z" fill="#999dae" stroke="#999dae" stroke-width="1.51"/><path d="M1825,527L1676,574L1949,552Z" fill="#1f3287" stroke="#1f3287" stroke-width="1.51"/><path d="M1949,552L1676,574L2070,564Z" fill="#1b2c7f" stroke="#1b2c7f" stroke-width="1.51"/><path d="M2010,374L1949,552L2070,564Z" fill="#1e3086" stroke="#1e3086" stroke-width="1.51"/><path d="M1997,92L2069,220L2085,87Z" fill="#4a7297" stroke="#4a7297" stroke-width="1.51"/><path d="M1316,-147L1595,-140L2088,-155Z" fill="#9ba1b4" stroke="#9ba1b4" stroke-width="1.51"/><path d="M801,-186L1316,-147L2088,-155Z" fill="#9fb8c0" stroke="#9fb8c0" stroke-width="1.51"/><path d="M1834,-109L1944,-111L2088,-155Z" fill="#938ca1" stroke="#938ca1" stroke-width="1.51"/><path d="M1595,-140L1834,-109L2088,-155Z" fill="#9993ac" stroke="#9993ac" stroke-width="1.51"/><path d="M1944,-111L2059,5L2088,-155Z" fill="#898896" stroke="#898896" stroke-width="1.51"/><path d="M2059,5L2085,87L2088,-155Z" fill="#7a8191" stroke="#7a8191" stroke-width="1.51"/><path d="M2069,220L2000,294L2108,374Z" fill="#225b96" stroke="#225b96" stroke-width="1.51"/><path d="M2000,294L2010,374L2108,374Z" fill="#215093" stroke="#215093" stroke-width="1.51"/><path d="M2010,374L2070,564L2108,374Z" fill="#1d3a87" stroke="#1d3a87" stroke-width="1.51"/><path d="M2085,87L2069,220L2108,374Z" fill="#2f6595" stroke="#2f6595" stroke-width="1.51"/><path d="M2088,-155L2085,87L2108,374Z" fill="#507392" stroke="#507392" stroke-width="1.51"/><path d="M2059,5L1997,92L2085,87Z" fill="#627996" stroke="#627996" stroke-width="1.51"/><path d="M1944,-111L1953,23L2059,5Z" fill="#81869a" stroke="#81869a" stroke-width="1.51"/><path d="M1881,175L2000,294L2069,220Z" fill="#3369a0" stroke="#3369a0" stroke-width="1.51"/><path d="M1997,92L1881,175L2069,220Z" fill="#46729f" stroke="#46729f" stroke-width="1.51"/><path d="M1953,23L1997,92L2059,5Z" fill="#6d7e99" stroke="#6d7e99" stroke-width="1.51"/><path d="M1881,175L1888,290L2000,294Z" fill="#3368a6" stroke="#3368a6" stroke-width="1.51"/><path d="M1820,447L1949,552L2010,374Z" fill="#233b93" stroke="#233b93" stroke-width="1.51"/><path d="M2000,294L1888,290L2010,374Z" fill="#265a9e" stroke="#265a9e" stroke-width="1.51"/><path d="M1888,290L1820,447L2010,374Z" fill="#274f9e" stroke="#274f9e" stroke-width="1.51"/><path d="M1953,23L1881,175L1997,92Z" fill="#5a7ba1" stroke="#5a7ba1" stroke-width="1.51"/><path d="M1834,-109L1808,-24L1944,-111Z" fill="#938fa7" stroke="#938fa7" stroke-width="1.51"/><path d="M1820,447L1825,527L1949,552Z" fill="#253492" stroke="#253492" stroke-width="1.51"/><path d="M1944,-111L1808,-24L1953,23Z" fill="#888aa3" stroke="#888aa3" stroke-width="1.51"/><path d="M1808,-24L1881,175L1953,23Z" fill="#6d82a7" stroke="#6d82a7" stroke-width="1.51"/><path d="M801,-186L1161,-124L1316,-147Z" fill="#a5d0c4" stroke="#a5d0c4" stroke-width="1.51"/><path d="M1808,-24L1686,105L1881,175Z" fill="#6385ab" stroke="#6385ab" stroke-width="1.51"/><path d="M1881,175L1726,301L1888,290Z" fill="#356dad" stroke="#356dad" stroke-width="1.51"/><path d="M1726,301L1820,447L1888,290Z" fill="#295ba7" stroke="#295ba7" stroke-width="1.51"/><path d="M1686,105L1726,301L1881,175Z" fill="#3f7caf" stroke="#3f7caf" stroke-width="1.51"/><path d="M1692,-2L1686,105L1808,-24Z" fill="#7991ac" stroke="#7991ac" stroke-width="1.51"/><path d="M1726,301L1654,373L1820,447Z" fill="#2659a6" stroke="#2659a6" stroke-width="1.51"/><path d="M1667,-113L1808,-24L1834,-109Z" fill="#9396aa" stroke="#9396aa" stroke-width="1.51"/><path d="M1820,447L1676,574L1825,527Z" fill="#243a93" stroke="#243a93" stroke-width="1.51"/><path d="M1667,-113L1692,-2L1808,-24Z" fill="#8d97ab" stroke="#8d97ab" stroke-width="1.51"/><path d="M1654,373L1676,574L1820,447Z" fill="#26479d" stroke="#26479d" stroke-width="1.51"/><path d="M1654,373L1578,512L1676,574Z" fill="#26489d" stroke="#26489d" stroke-width="1.51"/><path d="M1686,105L1614,237L1726,301Z" fill="#387fb2" stroke="#387fb2" stroke-width="1.51"/><path d="M1614,237L1654,373L1726,301Z" fill="#2770b1" stroke="#2770b1" stroke-width="1.51"/><path d="M1543,428L1578,512L1654,373Z" fill="#2456a4" stroke="#2456a4" stroke-width="1.51"/><path d="M1578,512L1445,578L1676,574Z" fill="#1e438e" stroke="#1e438e" stroke-width="1.51"/><path d="M1566,169L1614,237L1686,105Z" fill="#4589b3" stroke="#4589b3" stroke-width="1.51"/><path d="M1600,11L1686,105L1692,-2Z" fill="#7594ae" stroke="#7594ae" stroke-width="1.51"/><path d="M1667,-113L1600,11L1692,-2Z" fill="#8a9cad" stroke="#8a9cad" stroke-width="1.51"/><path d="M1600,11L1566,169L1686,105Z" fill="#5d90b1" stroke="#5d90b1" stroke-width="1.51"/><path d="M1595,-140L1600,11L1667,-113Z" fill="#94a2ae" stroke="#94a2ae" stroke-width="1.51"/><path d="M1474,268L1543,428L1614,237Z" fill="#2377b4" stroke="#2377b4" stroke-width="1.51"/><path d="M1614,237L1543,428L1654,373Z" fill="#2469ae" stroke="#2469ae" stroke-width="1.51"/><path d="M1442,108L1566,169L1600,11Z" fill="#5c97b3" stroke="#5c97b3" stroke-width="1.51"/><path d="M1469,4L1442,108L1600,11Z" fill="#74a1b3" stroke="#74a1b3" stroke-width="1.51"/><path d="M1595,-140L1469,4L1600,11Z" fill="#8ca4b0" stroke="#8ca4b0" stroke-width="1.51"/><path d="M1566,169L1474,268L1614,237Z" fill="#3386b6" stroke="#3386b6" stroke-width="1.51"/><path d="M1415,-140L1469,4L1595,-140Z" fill="#97adb2" stroke="#97adb2" stroke-width="1.51"/><path d="M1474,268L1451,414L1543,428Z" fill="#236caf" stroke="#236caf" stroke-width="1.51"/><path d="M1543,428L1445,578L1578,512Z" fill="#274da0" stroke="#274da0" stroke-width="1.51"/><path d="M1451,414L1445,578L1543,428Z" fill="#2757a5" stroke="#2757a5" stroke-width="1.51"/><path d="M1442,108L1474,268L1566,169Z" fill="#3f91b8" stroke="#3f91b8" stroke-width="1.51"/><path d="M1312,503L1160,522L1445,578Z" fill="#265b9f" stroke="#265b9f" stroke-width="1.51"/><path d="M1160,522L1070,574L1445,578Z" fill="#265d99" stroke="#265d99" stroke-width="1.51"/><path d="M1312,503L1445,578L1451,414Z" fill="#2957a5" stroke="#2957a5" stroke-width="1.51"/><path d="M1319,448L1312,503L1451,414Z" fill="#2864ab" stroke="#2864ab" stroke-width="1.51"/><path d="M1325,228L1319,448L1451,414Z" fill="#2378b5" stroke="#2378b5" stroke-width="1.51"/><path d="M1313,12L1442,108L1469,4Z" fill="#75a9b7" stroke="#75a9b7" stroke-width="1.51"/><path d="M1415,-140L1313,12L1469,4Z" fill="#8eb2b6" stroke="#8eb2b6" stroke-width="1.51"/><path d="M1325,228L1451,414L1474,268Z" fill="#2183ba" stroke="#2183ba" stroke-width="1.51"/><path d="M1442,108L1325,228L1474,268Z" fill="#3696bc" stroke="#3696bc" stroke-width="1.51"/><path d="M1316,-147L1313,12L1415,-140Z" fill="#99bab7" stroke="#99bab7" stroke-width="1.51"/><path d="M1306,98L1325,228L1442,108Z" fill="#4ca1bc" stroke="#4ca1bc" stroke-width="1.51"/><path d="M1313,12L1306,98L1442,108Z" fill="#67aaba" stroke="#67aaba" stroke-width="1.51"/><path d="M801,-186L852,-153L1161,-124Z" fill="#abdac5" stroke="#abdac5" stroke-width="1.51"/><path d="M852,-153L1031,-100L1161,-124Z" fill="#a5d4c0" stroke="#a5d4c0" stroke-width="1.51"/><path d="M1161,-124L1133,-24L1313,12Z" fill="#92c2bb" stroke="#92c2bb" stroke-width="1.51"/><path d="M1161,-124L1313,12L1316,-147Z" fill="#99c1bb" stroke="#99c1bb" stroke-width="1.51"/><path d="M1114,313L1169,397L1325,228Z" fill="#2391bf" stroke="#2391bf" stroke-width="1.51"/><path d="M1306,98L1134,90L1325,228Z" fill="#4dabc0" stroke="#4dabc0" stroke-width="1.51"/><path d="M1134,90L1114,313L1325,228Z" fill="#35a6c3" stroke="#35a6c3" stroke-width="1.51"/><path d="M1169,397L1319,448L1325,228Z" fill="#2282b9" stroke="#2282b9" stroke-width="1.51"/><path d="M1134,90L1306,98L1313,12Z" fill="#6ab4bd" stroke="#6ab4bd" stroke-width="1.51"/><path d="M1160,522L1312,503L1319,448Z" fill="#2c65ac" stroke="#2c65ac" stroke-width="1.51"/><path d="M1169,397L1160,522L1319,448Z" fill="#2c6fb0" stroke="#2c6fb0" stroke-width="1.51"/><path d="M1133,-24L1134,90L1313,12Z" fill="#7ebcbc" stroke="#7ebcbc" stroke-width="1.51"/><path d="M1006,250L1114,313L1134,90Z" fill="#39abc3" stroke="#39abc3" stroke-width="1.51"/><path d="M998,155L1006,250L1134,90Z" fill="#4cb4c2" stroke="#4cb4c2" stroke-width="1.51"/><path d="M1031,-100L1133,-24L1161,-124Z" fill="#9dccbb" stroke="#9dccbb" stroke-width="1.51"/><path d="M1023,436L1160,522L1169,397Z" fill="#3376b0" stroke="#3376b0" stroke-width="1.51"/><path d="M1114,313L1023,436L1169,397Z" fill="#2f86b8" stroke="#2f86b8" stroke-width="1.51"/><path d="M1023,436L1070,574L1160,522Z" fill="#376ba9" stroke="#376ba9" stroke-width="1.51"/><path d="M-191,-170L126,-127L392,-166Z" fill="#eef9bb" stroke="#eef9bb" stroke-width="1.51"/><path d="M1031,-100L1025,-29L1133,-24Z" fill="#97ccbc" stroke="#97ccbc" stroke-width="1.51"/><path d="M1133,-24L1025,-29L1134,90Z" fill="#86c4bc" stroke="#86c4bc" stroke-width="1.51"/><path d="M1025,-29L998,155L1134,90Z" fill="#6ebfbe" stroke="#6ebfbe" stroke-width="1.51"/><path d="M1006,250L1023,436L1114,313Z" fill="#3096be" stroke="#3096be" stroke-width="1.51"/><path d="M1006,250L906,370L1023,436Z" fill="#3595bc" stroke="#3595bc" stroke-width="1.51"/><path d="M1023,436L906,587L1070,574Z" fill="#386da4" stroke="#386da4" stroke-width="1.51"/><path d="M998,155L934,182L1006,250Z" fill="#42b5c4" stroke="#42b5c4" stroke-width="1.51"/><path d="M906,370L906,587L1023,436Z" fill="#3e7db0" stroke="#3e7db0" stroke-width="1.51"/><path d="M860,5L998,155L1025,-29Z" fill="#7dc9be" stroke="#7dc9be" stroke-width="1.51"/><path d="M860,5L1025,-29L1031,-100Z" fill="#98d2bc" stroke="#98d2bc" stroke-width="1.51"/><path d="M852,-153L860,5L1031,-100Z" fill="#a4d7bb" stroke="#a4d7bb" stroke-width="1.51"/><path d="M860,5L934,182L998,155Z" fill="#62c0c0" stroke="#62c0c0" stroke-width="1.51"/><path d="M901,233L906,370L1006,250Z" fill="#39a7c2" stroke="#39a7c2" stroke-width="1.51"/><path d="M934,182L901,233L1006,250Z" fill="#40b2c4" stroke="#40b2c4" stroke-width="1.51"/><path d="M514,-119L666,-121L801,-186Z" fill="#bce4be" stroke="#bce4be" stroke-width="1.51"/><path d="M392,-166L514,-119L801,-186Z" fill="#c8e9c0" stroke="#c8e9c0" stroke-width="1.51"/><path d="M772,400L730,511L906,587Z" fill="#507aab" stroke="#507aab" stroke-width="1.51"/><path d="M901,233L773,262L906,370Z" fill="#44a9c1" stroke="#44a9c1" stroke-width="1.51"/><path d="M772,400L906,587L906,370Z" fill="#4882b0" stroke="#4882b0" stroke-width="1.51"/><path d="M860,5L771,24L934,182Z" fill="#7bc9bd" stroke="#7bc9bd" stroke-width="1.51"/><path d="M711,163L901,233L934,182Z" fill="#52bbc2" stroke="#52bbc2" stroke-width="1.51"/><path d="M771,24L711,163L934,182Z" fill="#6cc4bf" stroke="#6cc4bf" stroke-width="1.51"/><path d="M711,163L773,262L901,233Z" fill="#54b8c1" stroke="#54b8c1" stroke-width="1.51"/><path d="M730,511L668,580L906,587Z" fill="#4a7298" stroke="#4a7298" stroke-width="1.51"/><path d="M773,262L772,400L906,370Z" fill="#4a9dbb" stroke="#4a9dbb" stroke-width="1.51"/><path d="M666,-121L771,24L801,-186Z" fill="#b2deb8" stroke="#b2deb8" stroke-width="1.51"/><path d="M801,-186L771,24L852,-153Z" fill="#b0dcb9" stroke="#b0dcb9" stroke-width="1.51"/><path d="M852,-153L771,24L860,5Z" fill="#a2d7ba" stroke="#a2d7ba" stroke-width="1.51"/><path d="M-50,515L-223,531L226,559Z" fill="#928ca0" stroke="#928ca0" stroke-width="1.51"/><path d="M661,374L772,400L773,262Z" fill="#53a0ba" stroke="#53a0ba" stroke-width="1.51"/><path d="M666,-121L611,5L771,24Z" fill="#a9dcb8" stroke="#a9dcb8" stroke-width="1.51"/><path d="M641,94L711,163L771,24Z" fill="#7dcbbc" stroke="#7dcbbc" stroke-width="1.51"/><path d="M661,374L730,511L772,400Z" fill="#568cb1" stroke="#568cb1" stroke-width="1.51"/><path d="M711,163L589,226L773,262Z" fill="#5fbdc0" stroke="#5fbdc0" stroke-width="1.51"/><path d="M589,226L661,374L773,262Z" fill="#5ab0bf" stroke="#5ab0bf" stroke-width="1.51"/><path d="M611,5L641,94L771,24Z" fill="#94d4ba" stroke="#94d4ba" stroke-width="1.51"/><path d="M661,374L668,580L730,511Z" fill="#5b80ab" stroke="#5b80ab" stroke-width="1.51"/><path d="M641,94L589,226L711,163Z" fill="#71c6be" stroke="#71c6be" stroke-width="1.51"/><path d="M589,226L471,316L661,374Z" fill="#68b1bd" stroke="#68b1bd" stroke-width="1.51"/><path d="M514,-119L611,5L666,-121Z" fill="#bce3b6" stroke="#bce3b6" stroke-width="1.51"/><path d="M661,374L441,439L668,580Z" fill="#6689ac" stroke="#6689ac" stroke-width="1.51"/><path d="M441,439L438,564L668,580Z" fill="#6b80a0" stroke="#6b80a0" stroke-width="1.51"/><path d="M471,316L441,439L661,374Z" fill="#6ea0b4" stroke="#6ea0b4" stroke-width="1.51"/><path d="M611,5L451,84L641,94Z" fill="#99d6b9" stroke="#99d6b9" stroke-width="1.51"/><path d="M451,84L589,226L641,94Z" fill="#84cdbc" stroke="#84cdbc" stroke-width="1.51"/><path d="M514,-119L439,-3L611,5Z" fill="#bce3b6" stroke="#bce3b6" stroke-width="1.51"/><path d="M439,-3L451,84L611,5Z" fill="#acddb7" stroke="#acddb7" stroke-width="1.51"/><path d="M451,84L471,316L589,226Z" fill="#7bc7be" stroke="#7bc7be" stroke-width="1.51"/><path d="M451,84L369,272L471,316Z" fill="#83c7bd" stroke="#83c7bd" stroke-width="1.51"/><path d="M392,-166L439,-3L514,-119Z" fill="#cfebb4" stroke="#cfebb4" stroke-width="1.51"/><path d="M126,-127L219,-111L392,-166Z" fill="#e4f4b8" stroke="#e4f4b8" stroke-width="1.51"/><path d="M392,-166L335,-42L439,-3Z" fill="#d0ecb4" stroke="#d0ecb4" stroke-width="1.51"/><path d="M319,511L438,564L441,439Z" fill="#7e88a6" stroke="#7e88a6" stroke-width="1.51"/><path d="M326,91L369,272L451,84Z" fill="#97d3bb" stroke="#97d3bb" stroke-width="1.51"/><path d="M352,374L441,439L471,316Z" fill="#7ca5b4" stroke="#7ca5b4" stroke-width="1.51"/><path d="M369,272L352,374L471,316Z" fill="#80b4b9" stroke="#80b4b9" stroke-width="1.51"/><path d="M319,511L226,559L438,564Z" fill="#7d849a" stroke="#7d849a" stroke-width="1.51"/><path d="M439,-3L326,91L451,84Z" fill="#aedeb7" stroke="#aedeb7" stroke-width="1.51"/><path d="M335,-42L326,91L439,-3Z" fill="#c0e6b5" stroke="#c0e6b5" stroke-width="1.51"/><path d="M352,374L319,511L441,439Z" fill="#8197ac" stroke="#8197ac" stroke-width="1.51"/><path d="M326,91L190,232L369,272Z" fill="#94d1bc" stroke="#94d1bc" stroke-width="1.51"/><path d="M219,-111L335,-42L392,-166Z" fill="#ddf2b3" stroke="#ddf2b3" stroke-width="1.51"/><path d="M111,510L-50,515L226,559Z" fill="#8f8b9e" stroke="#8f8b9e" stroke-width="1.51"/><path d="M190,232L352,374L369,272Z" fill="#8bbebb" stroke="#8bbebb" stroke-width="1.51"/><path d="M167,146L190,232L326,91Z" fill="#a2d7ba" stroke="#a2d7ba" stroke-width="1.51"/><path d="M177,36L326,91L335,-42Z" fill="#c2e6b5" stroke="#c2e6b5" stroke-width="1.51"/><path d="M179,412L319,511L352,374Z" fill="#899bad" stroke="#899bad" stroke-width="1.51"/><path d="M190,232L179,412L352,374Z" fill="#8eb4b7" stroke="#8eb4b7" stroke-width="1.51"/><path d="M219,-111L177,36L335,-42Z" fill="#d5eeb3" stroke="#d5eeb3" stroke-width="1.51"/><path d="M179,412L226,559L319,511Z" fill="#8b8ea7" stroke="#8b8ea7" stroke-width="1.51"/><path d="M177,36L167,146L326,91Z" fill="#b0dfb7" stroke="#b0dfb7" stroke-width="1.51"/><path d="M-191,-170L-88,-108L126,-127Z" fill="#f3fabe" stroke="#f3fabe" stroke-width="1.51"/><path d="M126,-127L89,2L177,36Z" fill="#daf1b3" stroke="#daf1b3" stroke-width="1.51"/><path d="M131,96L167,146L177,36Z" fill="#b5e1b7" stroke="#b5e1b7" stroke-width="1.51"/><path d="M121,274L127,412L179,412Z" fill="#93afb4" stroke="#93afb4" stroke-width="1.51"/><path d="M121,274L179,412L190,232Z" fill="#95bfba" stroke="#95bfba" stroke-width="1.51"/><path d="M126,-127L177,36L219,-111Z" fill="#dff2b2" stroke="#dff2b2" stroke-width="1.51"/><path d="M179,412L111,510L226,559Z" fill="#8f8fa7" stroke="#8f8fa7" stroke-width="1.51"/><path d="M127,412L111,510L179,412Z" fill="#929cac" stroke="#929cac" stroke-width="1.51"/><path d="M167,146L121,274L190,232Z" fill="#9cd1bc" stroke="#9cd1bc" stroke-width="1.51"/><path d="M89,2L131,96L177,36Z" fill="#c6e8b5" stroke="#c6e8b5" stroke-width="1.51"/><path d="M131,96L-17,153L167,146Z" fill="#b0ddb8" stroke="#b0ddb8" stroke-width="1.51"/><path d="M-17,153L121,274L167,146Z" fill="#a5d7bb" stroke="#a5d7bb" stroke-width="1.51"/><path d="M-88,-108L89,2L126,-127Z" fill="#e8f6b2" stroke="#e8f6b2" stroke-width="1.51"/><path d="M-50,515L111,510L127,412Z" fill="#9695a8" stroke="#9695a8" stroke-width="1.51"/><path d="M121,274L-37,303L127,412Z" fill="#9abab7" stroke="#9abab7" stroke-width="1.51"/><path d="M89,2L-17,153L131,96Z" fill="#bee4b6" stroke="#bee4b6" stroke-width="1.51"/><path d="M-17,153L-37,303L121,274Z" fill="#a3cfbc" stroke="#a3cfbc" stroke-width="1.51"/><path d="M-37,303L-83,357L127,412Z" fill="#9cb4b7" stroke="#9cb4b7" stroke-width="1.51"/><path d="M-83,357L-50,515L127,412Z" fill="#99a2b0" stroke="#99a2b0" stroke-width="1.51"/><path d="M-88,-108L-78,-15L89,2Z" fill="#e4f5b7" stroke="#e4f5b7" stroke-width="1.51"/><path d="M-78,-15L-17,153L89,2Z" fill="#cceab8" stroke="#cceab8" stroke-width="1.51"/><path d="M-188,41L-160,142L-78,-15Z" fill="#cdebc1" stroke="#cdebc1" stroke-width="1.51"/><path d="M-160,142L-198,296L-37,303Z" fill="#a6d0c6" stroke="#a6d0c6" stroke-width="1.51"/><path d="M-160,142L-37,303L-17,153Z" fill="#a9d8c3" stroke="#a9d8c3" stroke-width="1.51"/><path d="M-78,-15L-160,142L-17,153Z" fill="#bfe4bf" stroke="#bfe4bf" stroke-width="1.51"/><path d="M-83,357L-201,450L-50,515Z" fill="#9ba0b5" stroke="#9ba0b5" stroke-width="1.51"/><path d="M-198,296L-83,357L-37,303Z" fill="#9fc0c2" stroke="#9fc0c2" stroke-width="1.51"/><path d="M-201,450L-223,531L-50,515Z" fill="#9b93b3" stroke="#9b93b3" stroke-width="1.51"/><path d="M-88,-108L-188,41L-78,-15Z" fill="#e4f5bd" stroke="#e4f5bd" stroke-width="1.51"/><path d="M-191,-170L-188,41L-88,-108Z" fill="#eff9bf" stroke="#eff9bf" stroke-width="1.51"/><path d="M-198,296L-201,450L-83,357Z" fill="#9fb3c0" stroke="#9fb3c0" stroke-width="1.51"/><path d="M-188,41L-198,296L-160,142Z" fill="#b4dec8" stroke="#b4dec8" stroke-width="1.51"/><path d="M-191,-170L-223,531L-188,41Z" fill="#b9e1c8" stroke="#b9e1c8" stroke-width="1.51"/><path d="M-223,531L-198,296L-188,41Z" fill="#a3c8cb" stroke="#a3c8cb" stroke-width="1.51"/><path d="M-223,531L-201,450L-198,296Z" fill="#9da4bd" stroke="#9da4bd" stroke-width="1.51"/></svg>