<?xml version="1.0" encoding="UTF-8" standalone="no"?>
<!-- Generator: Adobe Illustrator 19.2.1, SVG Export Plug-In . SVG Version: 6.00 Build 0)  -->

<svg
   xmlns:dc="http://purl.org/dc/elements/1.1/"
   xmlns:cc="http://creativecommons.org/ns#"
   xmlns:rdf="http://www.w3.org/1999/02/22-rdf-syntax-ns#"
   xmlns:svg="http://www.w3.org/2000/svg"
   xmlns="http://www.w3.org/2000/svg"
   xmlns:sodipodi="http://sodipodi.sourceforge.net/DTD/sodipodi-0.dtd"
   xmlns:inkscape="http://www.inkscape.org/namespaces/inkscape"
   version="1.1"
   id="Layer_1"
   x="0px"
   y="0px"
   viewBox="0 0 1200 221.16381"
   xml:space="preserve"
   inkscape:version="0.91 r13725"
   sodipodi:docname="raincatcher-inverted.svg"
   width="1200"
   height="221.1638"><metadata
     id="metadata65"><rdf:RDF><cc:Work
         rdf:about=""><dc:format>image/svg+xml</dc:format><dc:type
           rdf:resource="http://purl.org/dc/dcmitype/StillImage" /><dc:title></dc:title></cc:Work></rdf:RDF></metadata><defs
     id="defs63" /><sodipodi:namedview
     pagecolor="#575757"
     bordercolor="#666666"
     borderopacity="1"
     objecttolerance="10"
     gridtolerance="10"
     guidetolerance="10"
     inkscape:pageopacity="0"
     inkscape:pageshadow="2"
     inkscape:window-width="1860"
     inkscape:window-height="1093"
     id="namedview61"
     showgrid="false"
     inkscape:zoom="0.35355339"
     inkscape:cx="-339.93443"
     inkscape:cy="-307.72794"
     inkscape:window-x="601"
     inkscape:window-y="241"
     inkscape:window-maximized="0"
     inkscape:current-layer="g5"
     fit-margin-top="0"
     fit-margin-left="0"
     fit-margin-right="0"
     fit-margin-bottom="0" /><style
     type="text/css"
     id="style3">
	.st0{fill:#005F6B;}
	.st1{fill:#008C9E;}
	.st2{fill:#00DFFC;}
	.st3{fill:#00B4CC;}
</style><g
     id="g5"
     transform="translate(0.025,107.46381)"><g
       id="g3361"
       transform="matrix(1.9451522,0,0,1.9451522,0.02362881,-107.46381)"><g
         id="g7"><path
           id="path9"
           d="m 0.1,0 c 2.7,0 24.5,0.1 33.1,0.1 18.3,0 33.1,14.6 33,32.9 0,9.1 -0.1,33 -0.1,33 L 28.4,65.9 C 12.3,63.6 0,49.9 0,33.1 0,25 -0.1,0 0.1,0 Z"
           class="st0"
           inkscape:connector-curvature="0"
           style="fill:#005f6b" /><path
           id="path11"
           d="m 67.1,71.4 c -1.8,0 -15.7,0 -21.2,0.1 -11.7,0 -21.2,9.4 -21.2,21.1 0,5.8 0.1,21.1 0.1,21.1 L 49,113.6 c 10.3,-1.4 18.2,-10.2 18.2,-21 0,-5.2 0.1,-21.2 -0.1,-21.2 z"
           class="st1"
           inkscape:connector-curvature="0"
           style="fill:#008c9e" /><path
           id="path13"
           d="m 97.7,40.8 c -1.1,0 -9.7,0 -13.1,0 -7.3,0 -13.2,5.8 -13.1,13.1 0,3.6 0.1,13.1 0.1,13.1 l 15,-0.1 C 93,66 97.9,60.5 97.9,53.9 97.8,50.7 97.8,40.8 97.7,40.8 Z"
           class="st2"
           inkscape:connector-curvature="0"
           style="fill:#00dffc" /><path
           id="path15"
           d="m 71.4,71.4 c 0,0.7 0,5.9 0,7.9 0,4.4 3.5,7.9 7.9,7.9 2.2,0 7.9,0 7.9,0 l 0,-9 c -0.5,-3.9 -3.8,-6.8 -7.8,-6.8 -2,0 -8,0 -8,0 z"
           class="st3"
           inkscape:connector-curvature="0"
           style="fill:#00b4cc" /></g><g
         style="fill:#373a3c"
         id="g17"><path
           style="fill:#373a3c"
           id="path19"
           d="m 130.3,52.8 c 0,-2 1,-3.1 3,-3.1 l 14.2,0 c 5.2,0 7.8,0.4 10,1.4 5.3,2.2 8.8,7.2 8.8,14.3 0,6.2 -3.3,12.1 -8.7,14.3 l 0,0.1 c 0,0 0.7,0.8 1.7,2.7 l 8.6,15.8 c 1.3,2.1 0.3,3.7 -2.1,3.7 l -4,0 c -1.7,0 -2.8,-0.7 -3.6,-2.1 l -9.2,-17.4 -9.2,0 0,16.5 c 0,2.1 -1,3.1 -3,3.1 l -3.4,0 c -2,0 -3,-1 -3,-3.1 l 0,-46.2 z m 18,21.5 c 5.1,0 8.3,-3.2 8.3,-8.4 0,-3.3 -1.3,-6 -4.1,-7.2 -1.3,-0.6 -2.9,-0.9 -5.7,-0.9 l -7,0 0,16.4 8.5,0 z"
           inkscape:connector-curvature="0" /><path
           style="fill:#373a3c"
           id="path21"
           d="m 188.1,52.2 c 0.6,-1.7 1.7,-2.5 3.5,-2.5 l 4.7,0 c 1.8,0 3,0.8 3.5,2.5 l 16.4,46.4 c 0.7,2.1 -0.2,3.5 -2.5,3.5 l -3.4,0 c -1.8,0 -3,-0.8 -3.5,-2.5 l -3.7,-10.9 -18.4,0 -3.6,10.9 c -0.5,1.8 -1.7,2.6 -3.5,2.6 l -3.4,0 c -2.3,0 -3.3,-1.4 -2.5,-3.5 l 16.4,-46.5 z m 12.6,28.7 -4.7,-14 c -0.9,-3 -2.1,-8.1 -2.1,-8.1 l -0.1,0 c 0,0 -1.2,5.2 -2.1,8.1 l -4.7,14 13.7,0 z"
           inkscape:connector-curvature="0" /><path
           style="fill:#373a3c"
           id="path23"
           d="m 223.4,52.8 c 0,-2 1,-3.1 3,-3.1 l 3.4,0 c 2,0 3,1.1 3,3.1 l 0,46.2 c 0,2.1 -1,3.1 -3,3.1 l -3.4,0 c -2,0 -3,-1 -3,-3.1 l 0,-46.2 z"
           inkscape:connector-curvature="0" /><path
           style="fill:#373a3c"
           id="path25"
           d="m 245,52.8 c 0,-2 1,-3.1 3,-3.1 l 4,0 c 1.8,0 2.9,0.6 3.7,2.1 L 274.3,80 c 2,3.1 4.4,8.1 4.4,8.1 l 0.1,0 c 0,0 -0.5,-5 -0.5,-8.1 l 0,-27.2 c 0,-2 1.1,-3.1 3.1,-3.1 l 3.3,0 c 2,0 3.1,1.1 3.1,3.1 l 0,46.2 c 0,2.1 -1.1,3.1 -3.1,3.1 l -4,0 c -1.6,0 -2.8,-0.6 -3.6,-2.1 L 258.4,71.8 C 256.5,68.7 254,63.7 254,63.7 l -0.1,0 c 0,0 0.5,5 0.5,8.1 l 0,27.2 c 0,2.1 -1,3.1 -3,3.1 l -3.4,0 c -2,0 -3,-1 -3,-3.1 l 0,-46.2 z"
           inkscape:connector-curvature="0" /><path
           style="fill:#373a3c"
           id="path27"
           d="m 323.7,49.3 c 9.2,0 15.1,3.7 17.4,5.5 0.9,0.7 0.9,1.6 0.3,2.6 l -0.7,1 c -0.7,0.9 -1.6,1 -2.5,0.3 -2.2,-1.6 -7.2,-4.6 -14.4,-4.6 -12.6,0 -20.9,9.5 -20.9,21.7 0,12.3 8.3,22.5 21.1,22.5 7.8,0 13.2,-3.8 15.4,-5.6 0.9,-0.7 1.8,-0.7 2.5,0.2 l 0.7,0.8 c 0.7,0.9 0.7,1.8 -0.1,2.6 -2.4,2.1 -8.9,6.8 -18.6,6.8 -15.8,0 -26.3,-12 -26.3,-27.2 0,-15.1 10.8,-26.6 26.1,-26.6 z"
           inkscape:connector-curvature="0" /><path
           style="fill:#373a3c"
           id="path29"
           d="m 365.6,51.7 c 0.3,-1 1,-1.5 2,-1.5 l 2.4,0 c 1,0 1.7,0.4 2,1.5 l 17.9,48.3 c 0.4,1.3 -0.1,2.1 -1.5,2.1 l -1.6,0 c -1,0 -1.8,-0.4 -2.1,-1.5 l -5.5,-15.1 -20.8,0 -5.5,15.1 c -0.3,1 -1,1.5 -2.1,1.5 l -1.6,0 c -1.4,0 -1.9,-0.8 -1.6,-2.1 l 18,-48.3 z m 12.1,29.5 -6.9,-18.8 C 370,60 368.9,55.6 368.9,55.6 l -0.1,0 c 0,0 -1.2,4.4 -2,6.8 l -6.9,18.8 17.8,0 z"
           inkscape:connector-curvature="0" /><path
           style="fill:#373a3c"
           id="path31"
           d="m 405.6,54.8 -16.8,0 c -1.2,0 -1.8,-0.7 -1.8,-1.8 l 0,-1 c 0,-1.2 0.7,-1.8 1.8,-1.8 l 38.7,0 c 1.2,0 1.8,0.7 1.8,1.8 l 0,0.9 c 0,1.2 -0.7,1.8 -1.8,1.8 l -16.8,0 0,45.5 c 0,1.2 -0.6,1.8 -1.8,1.8 l -1.5,0 c -1.2,0 -1.8,-0.7 -1.8,-1.8 l 0,-45.4 z"
           inkscape:connector-curvature="0" /><path
           style="fill:#373a3c"
           id="path33"
           d="m 456.5,49.3 c 9.2,0 15.1,3.7 17.4,5.5 0.9,0.7 0.9,1.6 0.3,2.6 l -0.7,1 c -0.7,0.9 -1.6,1 -2.5,0.3 -2.2,-1.6 -7.2,-4.6 -14.4,-4.6 -12.6,0 -20.9,9.5 -20.9,21.7 0,12.3 8.3,22.5 21.1,22.5 7.8,0 13.2,-3.8 15.4,-5.6 0.9,-0.7 1.8,-0.7 2.5,0.2 l 0.7,0.8 c 0.7,0.9 0.7,1.8 -0.1,2.6 -2.4,2.1 -8.9,6.8 -18.6,6.8 -15.8,0 -26.3,-12 -26.3,-27.2 0,-15.1 10.8,-26.6 26.1,-26.6 z"
           inkscape:connector-curvature="0" /><path
           style="fill:#373a3c"
           id="path35"
           d="m 486.3,52 c 0,-1.2 0.6,-1.8 1.8,-1.8 l 1.6,0 c 1.1,0 1.8,0.7 1.8,1.8 l 0,21.8 30.2,0 0,-21.8 c 0,-1.2 0.6,-1.8 1.8,-1.8 l 1.5,0 c 1.2,0 1.8,0.7 1.8,1.8 l 0,48.3 c 0,1.2 -0.7,1.8 -1.8,1.8 l -1.5,0 c -1.2,0 -1.8,-0.7 -1.8,-1.8 l 0,-21.9 -30.2,0 0,21.9 c 0,1.2 -0.7,1.8 -1.8,1.8 l -1.6,0 c -1.2,0 -1.8,-0.7 -1.8,-1.8 l 0,-48.3 z"
           inkscape:connector-curvature="0" /><path
           style="fill:#373a3c"
           id="path37"
           d="m 541.1,52 c 0,-1.2 0.6,-1.8 1.8,-1.8 l 25.6,0 c 1.2,0 1.8,0.7 1.8,1.8 l 0,0.9 c 0,1.2 -0.7,1.8 -1.8,1.8 l -22.3,0 0,18.9 17.9,0 c 1.2,0 1.8,0.6 1.8,1.8 l 0,1 c 0,1.2 -0.7,1.8 -1.8,1.8 l -17.9,0 0,19.3 23.6,0 c 1.2,0 1.8,0.7 1.8,1.8 l 0,0.9 c 0,1.2 -0.7,1.8 -1.8,1.8 l -27,0 c -1.2,0 -1.8,-0.7 -1.8,-1.8 L 541,52 Z"
           inkscape:connector-curvature="0" /><path
           style="fill:#373a3c"
           id="path39"
           d="m 582,52 c 0,-1.2 0.6,-1.8 1.8,-1.8 l 14,0 c 4.9,0 7.4,0.5 9.5,1.5 4.7,2.2 7.7,6.7 7.7,13 0,7 -4,12.7 -9.8,14.3 l 0,0.1 c 0,0 0.5,0.7 1.3,2.1 l 10.1,18.8 c 0.7,1.3 0.1,2.1 -1.3,2.1 l -1.9,0 c -1,0 -1.7,-0.4 -2.1,-1.3 l -11.1,-20.6 -13.1,0 0,20 c 0,1.2 -0.7,1.8 -1.8,1.8 l -1.6,0 c -1.2,0 -1.8,-0.7 -1.8,-1.8 l 0,-48.2 z m 17.4,23.7 c 6.3,0 10.3,-4.4 10.3,-10.9 0,-4.1 -2,-7.5 -5.5,-9.1 -1.5,-0.7 -3,-1 -6.8,-1 l -10.3,0 0,20.9 12.3,0 z"
           inkscape:connector-curvature="0" /></g><g
         style="fill:#373a3c"
         id="g41"><path
           style="fill:#373a3c"
           id="path43"
           d="m 130.3,11.3 c 0,-0.4 0.2,-0.6 0.6,-0.6 l 11.8,0 c 0.4,0 0.6,0.2 0.6,0.6 l 0,0.2 c 0,0.4 -0.2,0.6 -0.6,0.6 l -10.8,0 0,10.8 9.3,0 c 0.4,0 0.6,0.2 0.6,0.6 l 0,0.2 c 0,0.4 -0.2,0.6 -0.6,0.6 l -9.3,0 0,11.5 c 0,0.4 -0.2,0.6 -0.6,0.6 l -0.3,0 c -0.4,0 -0.6,-0.2 -0.6,-0.6 l 0,-24.5 z"
           inkscape:connector-curvature="0" /><path
           style="fill:#373a3c"
           id="path45"
           d="m 148.4,11.3 c 0,-0.4 0.2,-0.6 0.6,-0.6 l 13,0 c 0.4,0 0.6,0.2 0.6,0.6 l 0,0.2 c 0,0.4 -0.2,0.6 -0.6,0.6 l -12,0 0,10.6 9.7,0 c 0.4,0 0.6,0.2 0.6,0.6 l 0,0.2 c 0,0.4 -0.2,0.6 -0.6,0.6 l -9.7,0 0,10.9 12.6,0 c 0.4,0 0.6,0.2 0.6,0.6 l 0,0.2 c 0,0.4 -0.2,0.6 -0.6,0.6 l -13.6,0 c -0.4,0 -0.6,-0.2 -0.6,-0.6 l 0,-24.5 z"
           inkscape:connector-curvature="0" /><path
           style="fill:#373a3c"
           id="path47"
           d="m 168.8,11.3 c 0,-0.4 0.2,-0.6 0.6,-0.6 l 12.9,0 c 0.4,0 0.6,0.2 0.6,0.6 l 0,0.2 c 0,0.4 -0.2,0.6 -0.6,0.6 l -11.9,0 0,10.6 9.7,0 c 0.4,0 0.6,0.2 0.6,0.6 l 0,0.2 c 0,0.4 -0.2,0.6 -0.6,0.6 l -9.7,0 0,10.9 12.6,0 c 0.4,0 0.6,0.2 0.6,0.6 l 0,0.2 c 0,0.4 -0.2,0.6 -0.6,0.6 l -13.6,0 c -0.4,0 -0.6,-0.2 -0.6,-0.6 l 0,-24.5 z"
           inkscape:connector-curvature="0" /><path
           style="fill:#373a3c"
           id="path49"
           d="m 189.2,11.3 c 0,-0.4 0.2,-0.6 0.6,-0.6 l 7.5,0 c 7.7,0 12.9,4.7 12.9,12.9 0,8.2 -5.2,12.9 -12.9,12.9 l -7.5,0 c -0.4,0 -0.6,-0.2 -0.6,-0.6 l 0,-24.6 z M 197,35 c 6.9,0 11.5,-4 11.5,-11.5 C 208.5,16.1 203.9,12 197,12 l -6.3,0 0,23 6.3,0 z"
           inkscape:connector-curvature="0" /><path
           style="fill:#373a3c"
           id="path51"
           d="m 216.2,11.3 c 0,-0.4 0.2,-0.6 0.6,-0.6 l 0.3,0 c 0.4,0 0.6,0.2 0.6,0.6 l 0,11.5 16.4,0 0,-11.5 c 0,-0.4 0.2,-0.6 0.6,-0.6 l 0.3,0 c 0.4,0 0.6,0.2 0.6,0.6 l 0,24.6 c 0,0.4 -0.2,0.6 -0.6,0.6 l -0.3,0 c -0.4,0 -0.6,-0.2 -0.6,-0.6 l 0,-11.6 -16.4,0 0,11.6 c 0,0.4 -0.2,0.6 -0.6,0.6 l -0.3,0 c -0.4,0 -0.6,-0.2 -0.6,-0.6 l 0,-24.6 z"
           inkscape:connector-curvature="0" /><path
           style="fill:#373a3c"
           id="path53"
           d="m 243.5,11.3 c 0,-0.4 0.2,-0.6 0.6,-0.6 l 12.9,0 c 0.4,0 0.6,0.2 0.6,0.6 l 0,0.2 c 0,0.4 -0.2,0.6 -0.6,0.6 l -11.9,0 0,10.6 9.7,0 c 0.4,0 0.6,0.2 0.6,0.6 l 0,0.2 c 0,0.4 -0.2,0.6 -0.6,0.6 l -9.7,0 0,10.9 12.6,0 c 0.4,0 0.6,0.2 0.6,0.6 l 0,0.2 c 0,0.4 -0.2,0.6 -0.6,0.6 l -13.6,0 c -0.4,0 -0.6,-0.2 -0.6,-0.6 l 0,-24.5 z"
           inkscape:connector-curvature="0" /><path
           style="fill:#373a3c"
           id="path55"
           d="m 263.9,11.3 c 0,-0.4 0.2,-0.6 0.6,-0.6 l 0.4,0 c 0.3,0 0.6,0.1 0.8,0.4 L 280.1,31 c 0.8,1.2 2.1,3.3 2.1,3.3 l 0.1,0 c 0,0 -0.2,-2 -0.2,-3.3 l 0,-19.7 c 0,-0.4 0.2,-0.6 0.6,-0.6 l 0.3,0 c 0.4,0 0.6,0.2 0.6,0.6 l 0,24.6 c 0,0.4 -0.2,0.6 -0.6,0.6 l -0.4,0 c -0.3,0 -0.6,-0.1 -0.8,-0.4 L 267.4,16.2 c -0.9,-1.2 -2.1,-3.3 -2.1,-3.3 l -0.1,0 c 0,0 0.2,2 0.2,3.3 l 0,19.7 c 0,0.4 -0.2,0.6 -0.6,0.6 l -0.3,0 c -0.4,0 -0.6,-0.2 -0.6,-0.6 l 0,-24.6 z"
           inkscape:connector-curvature="0" /><path
           style="fill:#373a3c"
           id="path57"
           d="m 291.5,11.3 c 0,-0.4 0.2,-0.6 0.6,-0.6 l 6.9,0 c 2.4,0 3.6,0.3 4.7,0.8 2.1,1.1 3.6,3.3 3.6,6.2 0,3.7 -2.1,6.5 -5.2,7.1 l 0,0.1 c 0,0 0.3,0.3 0.6,0.9 l 5.4,10 c 0.2,0.4 0,0.7 -0.4,0.7 l -0.5,0 c -0.4,0 -0.6,-0.1 -0.7,-0.4 l -5.9,-11 -7.6,0 0,10.8 c 0,0.4 -0.2,0.6 -0.6,0.6 l -0.3,0 c -0.4,0 -0.6,-0.2 -0.6,-0.6 l 0,-24.6 z m 8.6,12.3 c 3.4,0 5.5,-2.4 5.5,-5.9 0,-2.3 -1.1,-4.1 -3,-5 -0.7,-0.3 -1.6,-0.5 -3.6,-0.5 l -6,0 0,11.5 7.1,0 z"
           inkscape:connector-curvature="0" /><path
           style="fill:#373a3c"
           id="path59"
           d="m 318.8,25.3 -8.4,-13.9 c -0.3,-0.4 -0.1,-0.7 0.4,-0.7 l 0.4,0 c 0.3,0 0.6,0.1 0.7,0.4 l 5.9,9.8 c 0.7,1.3 1.6,2.9 1.6,2.9 l 0.1,0 c 0,0 0.8,-1.7 1.6,-2.9 l 5.9,-9.8 c 0.2,-0.3 0.4,-0.4 0.7,-0.4 l 0.4,0 c 0.5,0 0.7,0.3 0.4,0.7 l -8.3,13.9 0,10.6 c 0,0.4 -0.2,0.6 -0.6,0.6 l -0.3,0 c -0.4,0 -0.6,-0.2 -0.6,-0.6 l 0,-10.6 z"
           inkscape:connector-curvature="0" /></g></g></g></svg>
