<svg id="logo" xmlns="http://www.w3.org/2000/svg" viewBox="-305 380 105.9 34"><style>.st0{fill:#fff}.st1{fill:#231f20}.st2{fill:#c00}</style><g id="logo_1_"><path class="st0" d="M-273.6 406.1c-.7-.2-1.3-.2-2.1-.2-1.2 0-2.3.2-3.1.5-.1 0-.2.1-.2.2v.1c.1.3-.1.6-.8.7-1.2.3-1.9 1.4-2.3 1.8-.5.5-1.9.8-1.7.5.2-.2.8-.9 1.2-1.6.3-.7.6-.8 1.1-1.5.1-.2.6-.8.7-1.3.2-.5.1-1.1.2-1.4.1-.4.4-1.2.5-1.6 0-.3-1.1.4-1.6.4s-1-.3-1.5-.3c-.6 0-.9.4-1.5.4-.3 0-.5-.3-1.1-.3-.7 0-1.6.4-3.3.4-1.7-.1-3.2-2.1-3.4-2.4-.2-.4-.5-.4-.9-.1-.3.3-.7.1-.8-.1-.2-.4-.8-1.5-1.7-1.7-1.2-.3-1.9.7-1.8 1.5s.6 1 .9 1.5c.2.4.4.7.8.9.3.1.4.3.4.6-.1.2-.4.3-.7.3-.5 0-.8-.1-1-.3-.3-.2-.5-.4-.8-.9s-.7-.7-1.3-.7c-.2 0-.5.1-.7.2-.8.4-1.8.7-2.8.7h-1.2c2.3 6.7 8.6 11.6 16.1 11.6 6.1-.1 11.3-3.2 14.4-7.9z" id="white"/><g id="black"><path class="st0" d="M-271.1 405.2h.2l.2.4h.1l-.3-.4c.1 0 .2-.1.2-.2 0-.2-.1-.3-.3-.3h-.3v.9h.1l.1-.4zm0-.1v-.3h.2c.1 0 .2 0 .2.1s-.1.1-.2.1l-.2.1z"/><path class="st0" d="M-270.1 405.2c0 .5-.4.9-.9.9s-.9-.4-.9-.9.4-.9.9-.9.9.4.9.9zm-.8-.7c-.4 0-.7.3-.7.7 0 .4.3.7.7.7s.7-.3.7-.7-.3-.7-.7-.7z"/><path d="M-273.6 406.1c-.7-.1-1.3-.2-2.1-.2-1.2 0-2.3.2-3.1.5-.1 0-.2.1-.2.2v.1c.1.3-.1.6-.8.7-1.2.3-1.9 1.4-2.3 1.8-.5.5-1.9.8-1.7.5.2-.2.8-.9 1.2-1.6.3-.7.6-.8 1.1-1.5.1-.2.6-.8.7-1.3.2-.5.1-1.1.2-1.4.1-.4.4-1.2.5-1.6 0-.3-1.1.4-1.6.4s-1-.3-1.5-.3c-.6 0-.9.4-1.5.4-.3 0-.5-.3-1.1-.3-.7 0-1.6.4-3.3.4-1.7-.1-3.2-2.1-3.4-2.4-.2-.4-.5-.4-.9-.1-.3.3-.7.1-.8-.1-.2-.4-.8-1.5-1.7-1.7-1.2-.3-1.9.7-1.8 1.5s.6 1 .9 1.5c.2.4.4.7.8.9.3.1.4.3.4.6-.1.2-.4.3-.7.3-.5 0-.8-.1-1-.3-.3-.2-.5-.4-.8-.9s-.7-.7-1.3-.7c-.2 0-.5.1-.7.2-.8.4-1.8.7-2.8.7h-1.2c-.6-1.7-.9-3.5-.9-5.4 0-9.4 7.6-17 17-17s17 7.6 17 17c.1 3.3-.9 6.5-2.6 9.1z"/><path class="st1" d="M-262.2 398c0-1.6 0-2.7-.1-3.7h2.6l.1 2.2h.1c.6-1.6 1.9-2.5 3.2-2.5.3 0 .5 0 .7.1v2.8c-.3-.1-.5-.1-.9-.1-1.4 0-2.4.9-2.6 2.2-.1.3-.1.6-.1.9v6h-2.9l-.1-7.9zM-252.2 400.8c.1 2.1 1.7 3 3.6 3 1.4 0 2.3-.2 3.2-.5l.4 2c-1 .4-2.4.7-4.1.7-3.8 0-6-2.3-6-5.9 0-3.2 1.9-6.3 5.7-6.3s5 3.1 5 5.7c0 .5 0 1-.1 1.3h-7.7zm5.2-2c0-1.1-.5-2.8-2.4-2.8-1.8 0-2.6 1.6-2.7 2.8h5.1zM-234.5 400.8c0 .3 0 .6-.1.9-.3 1.3-1.3 2.1-2.5 2.1-1.9 0-2.9-1.6-2.9-3.7 0-2.2 1.1-3.8 2.9-3.8 1.3 0 2.3.9 2.5 2.1.1.2.1.5.1.8v1.6zm2.9-11.1l-2.9-.8v6.6h-.1c-.5-.9-1.7-1.5-3.3-1.5-2.8 0-5.2 2.3-5.2 6.2 0 3.6 2.2 6 5 6 1.7 0 3.1-.8 3.8-2.1h.1l.1 1.8h2.6c-.1-.8-.1-2.1-.1-3.3v-12.9zM-223.8 393.9c-.9 0-1.7.3-2.4.7-.7.4-1.3 1-1.6 1.7v-5.5l-1.2-.3v15.4h1.2v-7.1c0-.5 0-.8.2-1.1.5-1.5 1.9-2.6 3.5-2.6 2.4 0 3.2 1.9 3.2 4v6.9h1.2v-7c0-4.5-3-5.1-4.1-5.1zM-209.4 403.1c0 .9 0 1.9.2 2.8h-1.1l-.2-1.7h-.1c-.6.9-1.9 1.9-3.7 1.9-2.3 0-3.4-1.7-3.4-3.2 0-2.7 2.4-4.3 7.1-4.3v-.3c0-1.2-.2-3.5-3-3.4-1 0-2.1.3-2.9.9l-.4-.8c1.1-.7 2.4-1 3.4-1 3.4 0 4 2.5 4 4.6l.1 4.5zm-1.2-3.5c-2.5-.1-5.9.3-5.9 3.1 0 1.7 1.1 2.4 2.3 2.4 1.9 0 3-1.2 3.4-2.3.1-.3.1-.5.1-.7l.1-2.5zM-204.8 391.6v2.6h3.3v.9h-3.3v7.6c0 1.5.5 2.4 1.7 2.4.6 0 1-.1 1.3-.2l.1.9c-.4.2-.9.3-1.6.3-.9 0-1.6-.3-2-.8-.5-.6-.7-1.6-.7-2.8v-7.4h-2v-.9h2v-2.1l1.2-.5zM-200 405.2h.2l.2.4h.1l-.3-.4c.1 0 .2-.1.2-.2 0-.2-.1-.3-.3-.3h-.3v.9h.1l.1-.4zm0-.1v-.2h.2c.1 0 .2 0 .2.1s-.1.1-.2.1h-.2z"/><path class="st1" d="M-199 405.2c0 .5-.4.9-.9.9s-.9-.4-.9-.9.4-.9.9-.9.9.4.9.9zm-.9-.7c-.4 0-.7.3-.7.7s.3.7.7.7.7-.3.7-.7-.3-.7-.7-.7z"/><path d="M-284.2 404.6c.1.1.2.4.1.7-.1.2-.2.3-.4.5s-.7.4-1.3 0c-.3-.2-.4-.3-.8-.2-.3 0-.5-.3-.4-.6.1-.3.6-.5 1.3-.1.3.2.7.5 1.1.2 0-.2.1-.3.4-.5z"/></g><path id="red" class="st2" d="M-289.2 388c-2 .1-2.2.4-2.5.7-.5.6-1.2-.7-1.2-.7-.4-.1-.9-.7-.6-1.4.3-.6.8-.4.9-.2.2.2.6.6 1.1.6s1.1-.1 1.9-.1c.8 0 1.4.3 1.4.6 0 .2-.1.4-1 .5zm2-3.3c.3-.3.9-.5 1.6-.5h.7c1.1 0 2 .5 1.9 1 0 .5-.9.9-2 .9-.4 0-.7-.1-1-.1 0 0-.1 0-.1-.1 0 0 0-.1.1-.1.7-.2 1.1-.4 1.1-.7 0-.3-.9-.5-2-.4h-.3zm8.9 7.7c-.2.6-.4 1.3-1.5 1.8-.2.1-.2-.1-.1-.2.4-.7.5-.9.6-1.1.2-.4.3-1-.1-2.1-.6-2.3-2-5.4-2.9-6.4s-2.6-1.2-4.2-.8c-.6.1-1.7.7-3.7.3-3.5-.8-4.1 1-4.3 1.7-.2.8-.7 3-.7 3-.2.9-.4 2.5 5.1 3.5 2.6.5 2.7 1.2 2.8 1.6.2.9.5 1.3.9 1.6.4.2 0 .4-.4.5-1.1.1-5.1-1-7.5-2.4-2-1.2-2-2.3-1.5-3.2-2.9-.3-5.2.3-5.6 1.7-.7 2.4 5.3 6.5 12.1 8.5 7.1 2.2 14.4.7 15.3-3.8.3-2.1-1.4-3.6-4.3-4.2z"/></g></svg>