<?xml version="1.0" encoding="utf-8"?>
<!-- Generator: Adobe Illustrator 18.1.1, SVG Export Plug-In . SVG Version: 6.00 Build 0)  -->
<svg version="1.1" id="Layer_1" xmlns="http://www.w3.org/2000/svg" xmlns:xlink="http://www.w3.org/1999/xlink" x="0px" y="0px"
	 viewBox="0 0 70.9 70.6" enable-background="new 0 0 70.9 70.6" xml:space="preserve">
<g>
	<g>
		<path fill="#CB2027" d="M70.7,0c-2.9,0-26.2,0.1-35.4,0.1C15.8,0.1,0,15.7,0,35.3C0,45,0.2,70.6,0.2,70.6l40.3-0.1
			c17.3-2.4,30.4-17.1,30.4-35C70.8,26.8,70.9,0,70.7,0z"/>
		<g>
			<path fill="#FFFFFF" d="M55.2,13.2l0-0.6l-14.3,0l0,0.6c0,0,0.1,29.5,0.1,34.7c0,4.9-4.5,10.1-4.5,10.2l-1,1.1l1.5-0.1
				c1.3,0,2.7-0.3,4-0.8v0.1l0.9-0.4c0.2-0.1,0.3-0.2,0.5-0.3c1.1-0.5,2.1-1.1,3.1-1.9c6.3-4.6,9.9-11.6,9.9-19.4
				C55.3,30.1,55.2,13.2,55.2,13.2z"/>
			<path fill="#FFFFFF" d="M36.4,31.2l1-1.1l-1.5,0.1c-2.2,0.1-4.4,0.5-6.7,1.3c0-3.5,0-6.4,0-7.7c0-4.9,4.5-10.1,4.5-10.2l1-1.1
				l-1.5,0.1c-1.3,0.1-2.7,0.3-4,0.8v-0.1l-0.9,0.4c-0.1,0-0.2,0.1-0.3,0.2l-0.2,0.1c-1.1,0.5-2.1,1.1-3.1,1.9
				c-6.3,4.6-9.9,11.6-9.9,19.4c0,6.4,0.1,23.4,0.1,23.4l0,0.6l14.3-0.1l0-12.9C30,38.7,36.3,31.3,36.4,31.2z"/>
		</g>
	</g>
</g>
</svg>
